<svg width="54" height="51" viewBox="0 0 54 51" fill="none"
  xmlns="http://www.w3.org/2000/svg">
  <g filter="url(#filter0_i_9_5)">
    <path fill-rule="evenodd" clip-rule="evenodd" d="M45.0653 0C49.4836 0 53.0653 3.5817 53.0653 7.99997V33.5661C53.0653 37.9844 49.4836 41.5661 45.0653 41.5661C44.155 41.5661 43.4171 42.3041 43.4171 43.2144V46.3373C43.4171 49.8953 39.1201 51.6825 36.5969 49.1739L30.1148 42.7295C29.3653 41.9844 28.3514 41.5661 27.2946 41.5661H7.99998C3.5817 41.5661 -1.90735e-05 37.9844 -1.90735e-05 33.5662V7.99998C-1.90735e-05 3.58171 3.5817 0 7.99998 0H45.0653Z" fill="url(#paint0_linear_9_5)"/>
  </g>
  <rect x="14" y="19" width="26" height="3" fill="white"/>
  <rect x="25" y="8" width="3" height="26" fill="white"/>
  <defs>
    <filter id="filter0_i_9_5" x="0" y="0" width="53.0653" height="50.3453" filterUnits="userSpaceOnUse" color-interpolation-filters="sRGB">
      <feFlood flood-opacity="0" result="BackgroundImageFix"/>
      <feBlend mode="normal" in="SourceGraphic" in2="BackgroundImageFix" result="shape"/>
      <feColorMatrix in="SourceAlpha" type="matrix" values="0 0 0 0 0 0 0 0 0 0 0 0 0 0 0 0 0 0 127 0" result="hardAlpha"/>
      <feOffset/>
      <feGaussianBlur stdDeviation="2"/>
      <feComposite in2="hardAlpha" operator="arithmetic" k2="-1" k3="1"/>
      <feColorMatrix type="matrix" values="0 0 0 0 0 0 0 0 0 0 0 0 0 0 0 0 0 0 0.1 0"/>
      <feBlend mode="normal" in2="shape" result="effect1_innerShadow_9_5"/>
    </filter>
    <linearGradient id="paint0_linear_9_5" x1="48.0653" y1="22.4155" x2="28.0908" y2="-10.1051" gradientUnits="userSpaceOnUse">
      <stop offset="0.0461233" stop-color="#FF7823"/>
      <stop offset="0.855923" stop-color="#D72E36"/>
    </linearGradient>
  </defs>
</svg>
